<?xml version="1.0" encoding="UTF-8"?>
<svg xmlns="http://www.w3.org/2000/svg" width="42" height="42">
  <path fill="#232a31" d="M20.173.303a.78.78 0 0 0-.161.476v3.88l-.08.003C10.1 5.11 2.267 13.293 2.267 23.322 2.267 33.636 10.557 42 20.783 42s18.516-8.363 18.516-18.679q0-.205-.005-.409l-9.26.403q.007.196.007.395c0 5.373-4.317 9.729-9.644 9.729-5.326 0-9.644-4.356-9.644-9.728 0-5.243 4.111-9.517 9.258-9.721v3.855a.78.78 0 0 0 1.256.617l11.06-8.533a.78.78 0 0 0 0-1.234L21.268.162a.78.78 0 0 0-1.094.141"></path>
</svg>
