<?xml version="1.0" encoding="UTF-8"?>
<svg xmlns="http://www.w3.org/2000/svg" width="42" height="42" viewBox="0 0 42 42" fill="none">
  <path d="M13.8603 20.3462C17.4199 26.8479 24.2875 31.2517 32.1754 31.2517C34.9285 31.2517 37.5572 30.7153 39.9644 29.7405C36.6543 36.9772 29.394 42 20.9699 42C15.7106 42 10.9049 40.0422 7.23085 36.8102C7.21406 36.4638 7.20556 36.1152 7.20556 35.7646C7.20556 29.6774 9.76591 24.1931 13.8603 20.3462ZM25.1914 15.4465C17.785 15.149 10.4731 18.7676 6.41053 25.5289C4.99263 27.8887 4.09855 30.4182 3.69436 32.9836C-0.803952 26.4192 -1.37 17.609 2.96873 10.3881C5.67749 5.87998 9.83075 2.769 14.4934 1.28436C14.799 1.44838 15.1022 1.62066 15.4027 1.80124C20.6204 4.93634 24.0027 9.95562 25.1914 15.4465ZM23.8758 27.3981C27.7266 21.0646 28.1066 12.9152 24.1626 6.08396C22.7861 3.69978 21.0072 1.69146 18.9594 0.094205C26.8816 -0.657603 34.8616 3.11861 39.0737 10.4141C41.7033 14.9688 42.4107 20.1096 41.4487 24.9074C41.1571 25.0951 40.8595 25.2768 40.5558 25.4521C35.2842 28.4957 29.2545 29.0205 23.8758 27.3981Z" fill="#232A31"></path>
</svg>
