<?xml version="1.0" encoding="UTF-8"?>
<svg xmlns="http://www.w3.org/2000/svg" width="42" height="42" viewBox="0 0 42 42" fill="none">
  <path fill-rule="evenodd" clip-rule="evenodd" d="M21 0C9.40201 0 0 9.40201 0 21C0 32.598 9.40201 42 21 42C32.598 42 42 32.598 42 21C42 9.40201 32.598 0 21 0ZM14.6747 10.438C14.6747 10.2758 14.722 10.1177 14.8118 9.98176C14.9693 9.74375 15.2274 9.61446 15.491 9.61446C15.6468 9.61446 15.8045 9.65975 15.944 9.75363L32.0224 20.5678C32.1122 20.6279 32.1889 20.7061 32.2485 20.7967C32.4983 21.1748 32.3971 21.6862 32.0224 21.9382L15.944 32.7532C15.8093 32.8429 15.6518 32.8915 15.491 32.8915C15.0403 32.8915 14.6747 32.5226 14.6747 32.0671V10.438Z" fill="#232A31"></path>
</svg>
