<?xml version="1.0" encoding="UTF-8"?>
<svg xmlns="http://www.w3.org/2000/svg" width="42" height="42" viewBox="0 0 42 42" fill="none">
  <path d="M22.8111 0C32.8446 0.83934 40.8771 8.73282 41.9515 18.7149H31.6964C30.7688 14.3512 27.2386 10.9523 22.8111 10.2261V0ZM42 22.7773C41.6337 27.1718 39.9213 31.1831 37.2771 34.3962L30.0433 27.1497C30.9205 25.8631 31.5301 24.3788 31.7918 22.7773H42H42ZM34.4096 37.2688C31.2021 39.9176 27.1979 41.633 22.8111 42V31.7739C24.4097 31.5117 25.8914 30.901 27.1758 30.0223L34.4096 37.2688ZM18.7558 41.9514C8.21034 40.8124 0 31.8667 0 21C0 10.1333 8.21034 1.18764 18.7558 0.0485687V10.3217C13.8317 11.3722 10.1383 15.754 10.1383 21C10.1383 26.246 13.8317 30.6278 18.7558 31.6783V41.9514Z" fill="#232A31"></path>
</svg>
