<?xml version="1.0" encoding="UTF-8"?>
<svg xmlns="http://www.w3.org/2000/svg" width="48" height="48">
  <path fill="#232A31" d="m24.885 22.908-.013 2.795c3.947.6 6.97 3.999 6.97 8.102 0 4.526-3.679 8.195-8.217 8.195s-8.217-3.67-8.217-8.195c0-4.078 2.986-7.46 6.896-8.09l.013-2.818a5.64 5.64 0 0 1-4.06-7.244l-3.829-2.092a8.2 8.2 0 0 1-6.21 2.83C3.678 16.39 0 12.72 0 8.194S3.679 0 8.217 0s8.218 3.67 8.218 8.195c0 1.131-.23 2.21-.646 3.19l3.807 2.08a5.64 5.64 0 0 1 4.029-1.684c1.51 0 2.882.59 3.895 1.553l3.816-2.26a8.2 8.2 0 0 1-.52-2.879C30.815 3.67 34.493 0 39.032 0s8.217 3.67 8.217 8.195-3.68 8.195-8.217 8.195a8.21 8.21 0 0 1-6.428-3.09l-3.674 2.176a5.64 5.64 0 0 1-4.046 7.432"></path>
</svg>
