<?xml version="1.0" encoding="UTF-8"?>
<svg xmlns="http://www.w3.org/2000/svg" width="22" height="22" viewBox="0 0 22 22" fill="none">
  <g clip-path="url(#clip0_501_13266)">
    <path d="M10.79 0C4.83 0 0 4.83 0 10.79C0 13.11 0.73 15.26 1.98 17.02L9.43 7.82L15.25 7.75L17.17 6.09C17.45 5.84 17.88 5.86 18.15 6.12C18.42 6.38 18.45 6.81 18.21 7.1L16.41 9.31C16.24 9.52 15.99 9.66 15.72 9.7L12.01 10.25L10.57 11.55H12.44C13.3 11.55 13.77 12.55 13.23 13.21L12.9 13.62L8.73 18.74C8.51 19.01 8.14 19.09 7.83 18.94C7.56 18.81 7.41 18.55 7.41 18.27C7.41 18.15 7.44 18.03 7.5 17.91L9.56 14.2H7.63L3.08 18.32C5.04 20.32 7.76 21.55 10.78 21.55C16.74 21.55 21.57 16.72 21.57 10.76C21.57 4.8 16.75 0 10.79 0ZM6.21 9.88L3.2 9.41C3 9.38 2.82 9.28 2.7 9.14C2.57 9 2.49 8.81 2.48 8.61C2.46 8.13 2.84 7.73 3.32 7.73H7.94L6.21 9.87V9.88ZM12.57 7.12C11.78 7.26 11.03 6.73 10.9 5.94C10.76 5.15 11.29 4.4 12.08 4.26C12.87 4.12 13.62 4.65 13.75 5.44C13.89 6.23 13.36 6.98 12.57 7.11V7.12Z" fill="#232A31"></path>
  </g>
  <defs>
    <clipPath id="clip0_501_13266">
      <rect width="21.58" height="21.57" fill="white"></rect>
    </clipPath>
  </defs>
</svg>
